<mxfile host="app.diagrams.net" modified="2024-06-01T00:27:42.709Z" agent="Mozilla/5.0 (Windows NT 10.0; Win64; x64) AppleWebKit/537.36 (KHTML, like Gecko) Chrome/125.0.0.0 Safari/537.36 Edg/125.0.0.0" etag="pKMKX37FuSvJN7oF2jcj" version="24.4.13" type="google">
  <diagram name="Página-1" id="tOKKlg1iaM0YWFA28fno">
    <mxGraphModel grid="1" page="1" gridSize="10" guides="1" tooltips="1" connect="1" arrows="1" fold="1" pageScale="1" pageWidth="827" pageHeight="1169" math="0" shadow="0">
      <root>
        <mxCell id="0" />
        <mxCell id="1" parent="0" />
        <mxCell id="90cOT_pGgJfc4WVKmfhz-41" style="edgeStyle=orthogonalEdgeStyle;rounded=0;orthogonalLoop=1;jettySize=auto;html=1;exitX=0.5;exitY=0.5;exitDx=0;exitDy=0;exitPerimeter=0;" edge="1" parent="1" source="90cOT_pGgJfc4WVKmfhz-1" target="90cOT_pGgJfc4WVKmfhz-40">
          <mxGeometry relative="1" as="geometry" />
        </mxCell>
        <mxCell id="90cOT_pGgJfc4WVKmfhz-42" style="edgeStyle=orthogonalEdgeStyle;rounded=0;orthogonalLoop=1;jettySize=auto;html=1;exitX=0.5;exitY=0.5;exitDx=0;exitDy=0;exitPerimeter=0;entryX=1;entryY=0.5;entryDx=0;entryDy=0;" edge="1" parent="1" source="90cOT_pGgJfc4WVKmfhz-1" target="90cOT_pGgJfc4WVKmfhz-39">
          <mxGeometry relative="1" as="geometry" />
        </mxCell>
        <mxCell id="90cOT_pGgJfc4WVKmfhz-43" style="edgeStyle=orthogonalEdgeStyle;rounded=0;orthogonalLoop=1;jettySize=auto;html=1;exitX=0.5;exitY=0.5;exitDx=0;exitDy=0;exitPerimeter=0;" edge="1" parent="1" source="90cOT_pGgJfc4WVKmfhz-1" target="90cOT_pGgJfc4WVKmfhz-38">
          <mxGeometry relative="1" as="geometry" />
        </mxCell>
        <mxCell id="90cOT_pGgJfc4WVKmfhz-44" style="edgeStyle=orthogonalEdgeStyle;rounded=0;orthogonalLoop=1;jettySize=auto;html=1;exitX=0.5;exitY=0.5;exitDx=0;exitDy=0;exitPerimeter=0;entryX=1;entryY=0.5;entryDx=0;entryDy=0;" edge="1" parent="1" source="90cOT_pGgJfc4WVKmfhz-1" target="90cOT_pGgJfc4WVKmfhz-37">
          <mxGeometry relative="1" as="geometry" />
        </mxCell>
        <object label="Comerciante" cliente="cliente" id="90cOT_pGgJfc4WVKmfhz-1">
          <mxCell style="shape=umlActor;verticalLabelPosition=bottom;verticalAlign=top;html=1;outlineConnect=0;" vertex="1" parent="1">
            <mxGeometry x="727" y="600" width="100" height="200" as="geometry" />
          </mxCell>
        </object>
        <mxCell id="90cOT_pGgJfc4WVKmfhz-7" value="Agregar al Carrito" style="ellipse;whiteSpace=wrap;html=1;" vertex="1" parent="1">
          <mxGeometry x="270" y="220" width="160" height="30" as="geometry" />
        </mxCell>
        <mxCell id="90cOT_pGgJfc4WVKmfhz-26" style="edgeStyle=orthogonalEdgeStyle;rounded=0;orthogonalLoop=1;jettySize=auto;html=1;exitX=0.5;exitY=0.5;exitDx=0;exitDy=0;exitPerimeter=0;entryX=0;entryY=0.5;entryDx=0;entryDy=0;" edge="1" parent="1" source="90cOT_pGgJfc4WVKmfhz-9" target="90cOT_pGgJfc4WVKmfhz-7">
          <mxGeometry relative="1" as="geometry" />
        </mxCell>
        <mxCell id="90cOT_pGgJfc4WVKmfhz-27" style="edgeStyle=orthogonalEdgeStyle;rounded=0;orthogonalLoop=1;jettySize=auto;html=1;exitX=0.5;exitY=0.5;exitDx=0;exitDy=0;exitPerimeter=0;entryX=0;entryY=0.5;entryDx=0;entryDy=0;" edge="1" parent="1" source="90cOT_pGgJfc4WVKmfhz-9" target="90cOT_pGgJfc4WVKmfhz-11">
          <mxGeometry relative="1" as="geometry" />
        </mxCell>
        <mxCell id="90cOT_pGgJfc4WVKmfhz-28" style="edgeStyle=orthogonalEdgeStyle;rounded=0;orthogonalLoop=1;jettySize=auto;html=1;exitX=0.5;exitY=0.5;exitDx=0;exitDy=0;exitPerimeter=0;entryX=0;entryY=0.5;entryDx=0;entryDy=0;" edge="1" parent="1" source="90cOT_pGgJfc4WVKmfhz-9" target="90cOT_pGgJfc4WVKmfhz-13">
          <mxGeometry relative="1" as="geometry" />
        </mxCell>
        <mxCell id="90cOT_pGgJfc4WVKmfhz-29" style="edgeStyle=orthogonalEdgeStyle;rounded=0;orthogonalLoop=1;jettySize=auto;html=1;exitX=0.5;exitY=0.5;exitDx=0;exitDy=0;exitPerimeter=0;" edge="1" parent="1" source="90cOT_pGgJfc4WVKmfhz-9" target="90cOT_pGgJfc4WVKmfhz-14">
          <mxGeometry relative="1" as="geometry" />
        </mxCell>
        <mxCell id="1L8bVluNoFV1M0LmRqwV-12" style="edgeStyle=orthogonalEdgeStyle;rounded=0;orthogonalLoop=1;jettySize=auto;html=1;exitX=0.5;exitY=0.5;exitDx=0;exitDy=0;exitPerimeter=0;entryX=0;entryY=0.5;entryDx=0;entryDy=0;" edge="1" parent="1" source="90cOT_pGgJfc4WVKmfhz-9" target="1L8bVluNoFV1M0LmRqwV-11">
          <mxGeometry relative="1" as="geometry" />
        </mxCell>
        <object label="Cliente" cliente="cliente" id="90cOT_pGgJfc4WVKmfhz-9">
          <mxCell style="shape=umlActor;verticalLabelPosition=bottom;verticalAlign=top;html=1;outlineConnect=0;" vertex="1" parent="1">
            <mxGeometry x="20" y="220" width="100" height="200" as="geometry" />
          </mxCell>
        </object>
        <mxCell id="1L8bVluNoFV1M0LmRqwV-7" style="edgeStyle=orthogonalEdgeStyle;rounded=0;orthogonalLoop=1;jettySize=auto;html=1;exitX=1;exitY=0.5;exitDx=0;exitDy=0;entryX=0;entryY=0.5;entryDx=0;entryDy=0;dashed=1;" edge="1" parent="1" source="90cOT_pGgJfc4WVKmfhz-11" target="1L8bVluNoFV1M0LmRqwV-3">
          <mxGeometry relative="1" as="geometry" />
        </mxCell>
        <mxCell id="1L8bVluNoFV1M0LmRqwV-8" style="edgeStyle=orthogonalEdgeStyle;rounded=0;orthogonalLoop=1;jettySize=auto;html=1;exitX=1;exitY=0.5;exitDx=0;exitDy=0;entryX=0;entryY=0.5;entryDx=0;entryDy=0;dashed=1;" edge="1" parent="1" source="90cOT_pGgJfc4WVKmfhz-11" target="1L8bVluNoFV1M0LmRqwV-4">
          <mxGeometry relative="1" as="geometry" />
        </mxCell>
        <mxCell id="90cOT_pGgJfc4WVKmfhz-11" value="Pagar" style="ellipse;whiteSpace=wrap;html=1;" vertex="1" parent="1">
          <mxGeometry x="270" y="280" width="160" height="30" as="geometry" />
        </mxCell>
        <mxCell id="uMgJcbBsK23hXO7tOAa2-1" style="edgeStyle=orthogonalEdgeStyle;rounded=0;orthogonalLoop=1;jettySize=auto;html=1;exitX=1;exitY=0.5;exitDx=0;exitDy=0;entryX=0.5;entryY=0;entryDx=0;entryDy=0;dashed=1;dashPattern=8 8;" edge="1" parent="1" source="90cOT_pGgJfc4WVKmfhz-13" target="90cOT_pGgJfc4WVKmfhz-37">
          <mxGeometry relative="1" as="geometry" />
        </mxCell>
        <mxCell id="90cOT_pGgJfc4WVKmfhz-13" value="Ver Pedidos Usuario" style="ellipse;whiteSpace=wrap;html=1;" vertex="1" parent="1">
          <mxGeometry x="270" y="340" width="160" height="30" as="geometry" />
        </mxCell>
        <mxCell id="90cOT_pGgJfc4WVKmfhz-14" value="Ingresar/Registrarse" style="ellipse;whiteSpace=wrap;html=1;" vertex="1" parent="1">
          <mxGeometry x="270" y="400" width="160" height="30" as="geometry" />
        </mxCell>
        <mxCell id="90cOT_pGgJfc4WVKmfhz-15" value="Modificar Carrito" style="ellipse;whiteSpace=wrap;html=1;" vertex="1" parent="1">
          <mxGeometry x="530" y="180" width="160" height="30" as="geometry" />
        </mxCell>
        <mxCell id="90cOT_pGgJfc4WVKmfhz-20" style="edgeStyle=orthogonalEdgeStyle;rounded=0;orthogonalLoop=1;jettySize=auto;html=1;exitX=0.5;exitY=0;exitDx=0;exitDy=0;entryX=0;entryY=1;entryDx=0;entryDy=0;dashed=1;" edge="1" parent="1" source="90cOT_pGgJfc4WVKmfhz-18" target="90cOT_pGgJfc4WVKmfhz-14">
          <mxGeometry relative="1" as="geometry" />
        </mxCell>
        <mxCell id="90cOT_pGgJfc4WVKmfhz-18" value="Modificar Usuario" style="ellipse;whiteSpace=wrap;html=1;" vertex="1" parent="1">
          <mxGeometry x="230" y="530" width="160" height="30" as="geometry" />
        </mxCell>
        <mxCell id="90cOT_pGgJfc4WVKmfhz-32" value="&amp;lt;&amp;lt;extend&amp;gt;&amp;gt;" style="text;html=1;align=center;verticalAlign=middle;resizable=0;points=[];autosize=1;strokeColor=none;fillColor=none;" vertex="1" parent="1">
          <mxGeometry x="220" y="480" width="90" height="30" as="geometry" />
        </mxCell>
        <mxCell id="90cOT_pGgJfc4WVKmfhz-35" value="&amp;lt;&amp;lt;extend&amp;gt;&amp;gt;" style="text;html=1;align=center;verticalAlign=middle;resizable=0;points=[];autosize=1;strokeColor=none;fillColor=none;" vertex="1" parent="1">
          <mxGeometry x="450" y="160" width="90" height="30" as="geometry" />
        </mxCell>
        <mxCell id="90cOT_pGgJfc4WVKmfhz-36" value="&amp;lt;&amp;lt;extend&amp;gt;&amp;gt;" style="text;html=1;align=center;verticalAlign=middle;resizable=0;points=[];autosize=1;strokeColor=none;fillColor=none;" vertex="1" parent="1">
          <mxGeometry x="440" y="230" width="90" height="30" as="geometry" />
        </mxCell>
        <mxCell id="90cOT_pGgJfc4WVKmfhz-37" value="Ver Pedidos Usuarios" style="ellipse;whiteSpace=wrap;html=1;" vertex="1" parent="1">
          <mxGeometry x="430" y="600" width="160" height="30" as="geometry" />
        </mxCell>
        <mxCell id="90cOT_pGgJfc4WVKmfhz-38" value="Actualizar Anuncio" style="ellipse;whiteSpace=wrap;html=1;" vertex="1" parent="1">
          <mxGeometry x="430" y="650" width="160" height="30" as="geometry" />
        </mxCell>
        <mxCell id="90cOT_pGgJfc4WVKmfhz-39" value="Actualizar Ofertas" style="ellipse;whiteSpace=wrap;html=1;" vertex="1" parent="1">
          <mxGeometry x="430" y="700" width="160" height="30" as="geometry" />
        </mxCell>
        <mxCell id="90cOT_pGgJfc4WVKmfhz-40" value="Actualizar Catálogo" style="ellipse;whiteSpace=wrap;html=1;" vertex="1" parent="1">
          <mxGeometry x="430" y="760" width="160" height="30" as="geometry" />
        </mxCell>
        <mxCell id="90cOT_pGgJfc4WVKmfhz-68" value="&amp;lt;&amp;lt;Include&amp;gt;&amp;gt;" style="text;html=1;align=center;verticalAlign=middle;whiteSpace=wrap;rounded=0;" vertex="1" parent="1">
          <mxGeometry x="520" y="450" width="60" height="30" as="geometry" />
        </mxCell>
        <mxCell id="1L8bVluNoFV1M0LmRqwV-3" value="Pagar con Tarjeta" style="ellipse;whiteSpace=wrap;html=1;" vertex="1" parent="1">
          <mxGeometry x="500" y="260" width="160" height="30" as="geometry" />
        </mxCell>
        <mxCell id="1L8bVluNoFV1M0LmRqwV-4" value="Pagar con MercadoPago" style="ellipse;whiteSpace=wrap;html=1;" vertex="1" parent="1">
          <mxGeometry x="500" y="310" width="160" height="30" as="geometry" />
        </mxCell>
        <mxCell id="1L8bVluNoFV1M0LmRqwV-9" value="&amp;lt;&amp;lt;extend&amp;gt;&amp;gt;" style="text;html=1;align=center;verticalAlign=middle;resizable=0;points=[];autosize=1;strokeColor=none;fillColor=none;" vertex="1" parent="1">
          <mxGeometry x="460" y="280" width="90" height="30" as="geometry" />
        </mxCell>
        <mxCell id="1L8bVluNoFV1M0LmRqwV-13" style="edgeStyle=orthogonalEdgeStyle;rounded=0;orthogonalLoop=1;jettySize=auto;html=1;exitX=1;exitY=0.5;exitDx=0;exitDy=0;entryX=0;entryY=0.5;entryDx=0;entryDy=0;dashed=1;" edge="1" parent="1" source="1L8bVluNoFV1M0LmRqwV-11" target="90cOT_pGgJfc4WVKmfhz-15">
          <mxGeometry relative="1" as="geometry" />
        </mxCell>
        <mxCell id="1L8bVluNoFV1M0LmRqwV-11" value="Ver Carrito" style="ellipse;whiteSpace=wrap;html=1;" vertex="1" parent="1">
          <mxGeometry x="270" y="170" width="160" height="30" as="geometry" />
        </mxCell>
        <mxCell id="XRx3GCEmRwhTN5hMQFkk-2" value="&lt;font style=&quot;font-size: 16px;&quot;&gt;Sistema e-commerce&lt;/font&gt;" style="swimlane;whiteSpace=wrap;html=1;fillColor=#f5f5f5;fontColor=#333333;strokeColor=#666666;" vertex="1" parent="1">
          <mxGeometry x="140" y="110" width="560" height="730" as="geometry" />
        </mxCell>
      </root>
    </mxGraphModel>
  </diagram>
</mxfile>
